<svg xmlns="http://www.w3.org/2000/svg" viewBox="0 0 262.8 290.6"><defs><style>.cls-1{fill:#009ee2;}</style></defs><g id="Ebene_2" data-name="Ebene 2"><g id="Ebene_1-2" data-name="Ebene 1"><path class="cls-1" d="M80.7,130.7c0-29.7,20.1-49.1,50.7-49.1,30.4,0,50.5,19.4,50.5,49.1V191H162.7V130.5c0-18.8-12.5-31.5-31.5-31.5-18.5,0-31,12.7-31,31.5V191H80.7Z"/><path class="cls-1" d="M131.3,10.2a30.14,30.14,0,0,1,15.2,4.1l90.8,52.4A30.41,30.41,0,0,1,252.5,93V197.8a30.41,30.41,0,0,1-15.2,26.3l-90.8,52.4a30.23,30.23,0,0,1-30.4,0L25.3,224.1a30.41,30.41,0,0,1-15.2-26.3V92.9A30.41,30.41,0,0,1,25.3,66.6l90.8-52.4a31.09,31.09,0,0,1,15.2-4m0-10.2A40.88,40.88,0,0,0,111,5.4L20.3,57.8A40.61,40.61,0,0,0,0,92.9V197.7a40.37,40.37,0,0,0,20.3,35.1l90.8,52.4a40.86,40.86,0,0,0,40.6,0l90.8-52.4a40.57,40.57,0,0,0,20.3-35.1V92.9a40.37,40.37,0,0,0-20.3-35.1L151.6,5.4A40.88,40.88,0,0,0,131.3,0Z"/></g></g></svg>